<svg version="1.1" viewBox="0.0 0.0 960.0 720.0" fill="none" stroke="none" stroke-linecap="square" stroke-miterlimit="10" xmlns:xlink="http://www.w3.org/1999/xlink" xmlns="http://www.w3.org/2000/svg"><clipPath id="p.0"><path d="m0 0l960.0 0l0 720.0l-960.0 0l0 -720.0z" clip-rule="nonzero"/></clipPath><g clip-path="url(#p.0)"><path fill="#000000" fill-opacity="0.0" d="m0 0l960.0 0l0 720.0l-960.0 0z" fill-rule="evenodd"/><g filter="url(#shadowFilter-p.1)"><use xlink:href="#p.1" transform="matrix(1.0 0.0 0.0 1.0 0.0 3.121419422572188)"/></g><defs><filter id="shadowFilter-p.1" filterUnits="userSpaceOnUse"><feGaussianBlur in="SourceAlpha" stdDeviation="3.1214192" result="blur"/><feComponentTransfer in="blur" color-interpolation-filters="sRGB"><feFuncR type="linear" slope="0" intercept="0.0"/><feFuncG type="linear" slope="0" intercept="0.0"/><feFuncB type="linear" slope="0" intercept="0.0"/><feFuncA type="linear" slope="0.5" intercept="0"/></feComponentTransfer></filter></defs><g id="p.1"><defs><linearGradient id="p.2" gradientUnits="userSpaceOnUse" gradientTransform="matrix(8.80953685689985 0.0 0.0 8.80953685689985 0.0 0.0)" spreadMethod="pad" x1="32.19339773377358" y1="21.97254140939538" x2="32.19336514710126" y2="30.78207826623496"><stop offset="0.0" stop-color="#0d4e74"/><stop offset="1.0" stop-color="#175c74"/></linearGradient></defs><path fill="url(#p.2)" d="m283.60892 222.30328l0 0c0 -15.869202 12.864532 -28.733734 28.733734 -28.733734l392.86322 0c7.6206665 0 14.929199 3.027298 20.317871 8.415924c5.388611 5.388611 8.415894 12.697159 8.415894 20.31781l0 20.13884c0 15.869186 -12.864563 28.733719 -28.733765 28.733719l-392.86322 0l0 0c-15.869202 0 -28.733734 -12.864532 -28.733734 -28.733719z" fill-rule="evenodd"/></g><g filter="url(#shadowFilter-p.3)"><use xlink:href="#p.3" transform="matrix(1.0 0.0 0.0 1.0 0.0 3.1214194225721497)"/></g><defs><filter id="shadowFilter-p.3" filterUnits="userSpaceOnUse"><feGaussianBlur in="SourceAlpha" stdDeviation="3.1214192" result="blur"/><feComponentTransfer in="blur" color-interpolation-filters="sRGB"><feFuncR type="linear" slope="0" intercept="0.0"/><feFuncG type="linear" slope="0" intercept="0.0"/><feFuncB type="linear" slope="0" intercept="0.0"/><feFuncA type="linear" slope="0.5" intercept="0"/></feComponentTransfer></filter></defs><g id="p.3"><defs><linearGradient id="p.4" gradientUnits="userSpaceOnUse" gradientTransform="matrix(8.809535693090046 0.0 0.0 8.809535693090046 0.0 0.0)" spreadMethod="pad" x1="32.19340198677773" y1="37.387227112428" x2="32.193369400101105" y2="46.19676280545778"><stop offset="0.0" stop-color="#206973"/><stop offset="1.0" stop-color="#2a7773"/></linearGradient></defs><path fill="url(#p.4)" d="m283.60892 358.0995l0 0c0 -15.869232 12.864532 -28.733734 28.733734 -28.733734l392.86322 0c7.6206665 0 14.929199 3.0272827 20.317871 8.415894c5.388611 5.3886414 8.415894 12.697174 8.415894 20.31784l0 20.138824c0 15.869202 -12.864563 28.733734 -28.733765 28.733734l-392.86322 0l0 0c-15.869202 0 -28.733734 -12.864532 -28.733734 -28.733734z" fill-rule="evenodd"/></g><g filter="url(#shadowFilter-p.5)"><use xlink:href="#p.5" transform="matrix(1.0 0.0 0.0 1.0 0.0 3.1214194225721497)"/></g><defs><filter id="shadowFilter-p.5" filterUnits="userSpaceOnUse"><feGaussianBlur in="SourceAlpha" stdDeviation="3.1214192" result="blur"/><feComponentTransfer in="blur" color-interpolation-filters="sRGB"><feFuncR type="linear" slope="0" intercept="0.0"/><feFuncG type="linear" slope="0" intercept="0.0"/><feFuncB type="linear" slope="0" intercept="0.0"/><feFuncA type="linear" slope="0.5" intercept="0"/></feComponentTransfer></filter></defs><g id="p.5"><defs><linearGradient id="p.6" gradientUnits="userSpaceOnUse" gradientTransform="matrix(8.80953452928009 0.0 0.0 8.80953452928009 0.0 0.0)" spreadMethod="pad" x1="32.19340623978356" y1="52.8019168882675" x2="32.19337365310264" y2="61.61145141748732"><stop offset="0.0" stop-color="#338472"/><stop offset="1.0" stop-color="#3d9272"/></linearGradient></defs><path fill="url(#p.6)" d="m283.60892 493.89566l0 0c0 -15.869202 12.864532 -28.733734 28.733734 -28.733734l392.86322 0c7.6206665 0 14.929199 3.0272827 20.317871 8.415924c5.388611 5.388611 8.415894 12.697144 8.415894 20.31781l0 20.138824c0 15.869202 -12.864563 28.733765 -28.733765 28.733765l-392.86322 0l0 0c-15.869202 0 -28.733734 -12.864563 -28.733734 -28.733765z" fill-rule="evenodd"/></g></g></svg>