<?xml version="1.0" encoding="UTF-8" standalone="no"?>
<svg version="1.1" xmlns="http://www.w3.org/2000/svg" xmlns:xlink="http://www.w3.org/1999/xlink" width="207.68" height="87.68">
	<g id="dp_dp001" transform="matrix(1,0,0,1,-410.556,-334.124)">
		<path id="dp_path002" fill="#084f6f" fill-rule="evenodd" stroke="none" stroke-width="0" d="M 411.223,371.448 C 411.223,370.528 411.968,369.783 412.888,369.783 C 413.808,369.783 414.553,370.528 414.553,371.448 L 414.553,383.895 C 414.553,384.815 413.808,385.56 412.888,385.56 C 411.968,385.56 411.223,384.815 411.223,383.895 Z "/>
		<path id="dp_path003" fill="#084f6f" fill-rule="evenodd" stroke="none" stroke-width="0" d="M 419.371,359.311 C 419.371,358.391 420.116,357.645 421.036,357.645 C 421.956,357.645 422.701,358.391 422.701,359.311 L 422.701,395.141 C 422.701,396.061 421.956,396.807 421.036,396.807 C 420.116,396.807 419.371,396.061 419.371,395.141 Z "/>
		<path id="dp_path004" fill="#084f6f" fill-rule="evenodd" stroke="none" stroke-width="0" d="M 427.017,364.672 C 427.017,363.752 427.763,363.007 428.683,363.007 C 429.603,363.007 430.348,363.752 430.348,364.672 L 430.348,390.537 C 430.348,391.457 429.603,392.203 428.683,392.203 C 427.763,392.203 427.017,391.457 427.017,390.537 Z "/>
		<path id="dp_path005" fill="#084f6f" fill-rule="evenodd" stroke="none" stroke-width="0" d="M 434.54,353.171 C 434.54,352.251 435.285,351.505 436.205,351.505 C 437.125,351.505 437.871,352.251 437.871,353.171 L 437.871,402.168 C 437.871,403.088 437.125,403.833 436.205,403.833 C 435.285,403.833 434.54,403.088 434.54,402.168 Z "/>
		<path id="dp_path006" fill="#084f6f" fill-rule="evenodd" stroke="none" stroke-width="0" d="M 442.437,342.308 C 442.437,341.388 443.183,340.643 444.103,340.643 C 445.023,340.643 445.768,341.388 445.768,342.308 L 445.768,413.283 C 445.768,414.203 445.023,414.948 444.103,414.948 C 443.183,414.948 442.437,414.203 442.437,413.283 Z "/>
		<path id="dp_path007" fill="#084f6f" fill-rule="evenodd" stroke="none" stroke-width="0" d="M 457.785,349.973 C 457.785,349.053 458.531,348.308 459.451,348.308 C 460.371,348.308 461.116,349.053 461.116,349.973 L 461.116,404.984 C 461.116,405.904 460.371,406.649 459.451,406.649 C 458.531,406.649 457.785,405.904 457.785,404.984 Z "/>
		<path id="dp_path008" fill="#084f6f" fill-rule="evenodd" stroke="none" stroke-width="0" d="M 465.809,363.397 C 465.809,362.477 466.555,361.732 467.475,361.732 C 468.395,361.732 469.14,362.477 469.14,363.397 L 469.14,392.46 C 469.14,393.38 468.395,394.125 467.475,394.125 C 466.555,394.125 465.809,393.38 465.809,392.46 Z "/>
		<path id="dp_path009" fill="#084f6f" fill-rule="evenodd" stroke="none" stroke-width="0" d="M 473.652,370.905 C 473.652,369.985 474.397,369.24 475.317,369.24 C 476.237,369.24 476.983,369.985 476.983,370.905 L 476.983,384.307 C 476.983,385.227 476.237,385.972 475.317,385.972 C 474.397,385.972 473.652,385.227 473.652,384.307 Z "/>
		<path id="dp_path010" fill="#084f6f" fill-rule="evenodd" stroke="none" stroke-width="0" d="M 504.708,372.048 C 504.708,371.128 505.453,370.383 506.373,370.383 C 507.293,370.383 508.039,371.128 508.039,372.048 L 508.039,383.401 C 508.039,384.321 507.293,385.067 506.373,385.067 C 505.453,385.067 504.708,384.321 504.708,383.401 Z "/>
		<path id="dp_path011" fill="#084f6f" fill-rule="evenodd" stroke="none" stroke-width="0" d="M 481.424,366.561 C 481.424,365.641 482.169,364.896 483.089,364.896 C 484.009,364.896 484.755,365.641 484.755,366.561 L 484.755,389.289 C 484.755,390.209 484.009,390.955 483.089,390.955 C 482.169,390.955 481.424,390.209 481.424,389.289 Z "/>
		<path id="dp_path012" fill="#084f6f" fill-rule="evenodd" stroke="none" stroke-width="0" d="M 496.843,368.224 C 496.843,367.304 497.588,366.559 498.508,366.559 C 499.428,366.559 500.173,367.304 500.173,368.224 L 500.173,397.721 C 500.173,398.641 499.428,399.387 498.508,399.387 C 497.588,399.387 496.843,398.641 496.843,397.721 Z "/>
		<path id="dp_path013" fill="#084f6f" fill-rule="evenodd" stroke="none" stroke-width="0" d="M 490.724,389.797 C 489.785,389.797 489.025,389.037 489.025,388.099 C 489.025,387.16 489.785,386.4 490.724,386.4 L 498.433,386.4 C 499.372,386.4 500.132,387.16 500.132,388.099 C 500.132,389.037 499.372,389.797 498.433,389.797 Z "/>
		<path id="dp_path014" fill="#084f6f" fill-rule="evenodd" stroke="none" stroke-width="0" d="M 483.431,381.323 C 482.492,381.323 481.732,380.563 481.732,379.624 C 481.732,378.685 482.492,377.925 483.431,377.925 L 490.436,377.925 C 491.375,377.925 492.135,378.685 492.135,379.624 C 492.135,380.563 491.375,381.323 490.436,381.323 Z "/>
		<path id="dp_path015" fill="#084f6f" fill-rule="evenodd" stroke="none" stroke-width="0" d="M 488.944,361.195 C 488.944,360.275 489.689,359.529 490.609,359.529 C 491.529,359.529 492.275,360.275 492.275,361.195 L 492.275,402.579 C 492.275,403.499 491.529,404.244 490.609,404.244 C 489.689,404.244 488.944,403.499 488.944,402.579 Z "/>
		<path id="dp_path016" fill="#198abe" fill-rule="evenodd" stroke="none" stroke-width="0" d="M 450.28,336.512 C 450.28,335.592 451.025,334.847 451.945,334.847 C 452.865,334.847 453.611,335.592 453.611,336.512 L 453.611,419.48 C 453.611,420.4 452.865,421.145 451.945,421.145 C 451.025,421.145 450.28,420.4 450.28,419.48 Z "/>
		<path id="dp_path017" fill="#198abe" fill-rule="evenodd" stroke="none" stroke-width="0" d="M 496.664,405.409 C 496.664,404.624 497.3,403.988 498.085,403.988 L 498.573,403.988 C 499.359,403.988 499.995,404.624 499.995,405.409 L 499.995,405.408 C 499.995,406.193 499.359,406.829 498.573,406.829 L 498.085,406.829 C 497.3,406.829 496.664,406.193 496.664,405.408 Z "/>
		<path id="dp_path018" fill="#198abe" fill-rule="evenodd" stroke="none" stroke-width="0" d="M 516.563,355.571 C 516.563,354.984 517.037,354.509 517.624,354.509 L 517.623,354.509 C 518.209,354.509 518.684,354.984 518.684,355.571 L 518.684,405.908 C 518.684,406.495 518.209,406.969 517.623,406.969 L 517.624,406.969 C 517.037,406.969 516.563,406.495 516.563,405.908 Z "/>
	</g>
	<text id="dp_text019" transform="matrix(1.11681,8.0583e-016,-6.97656e-016,1,-37.8376,41.8813)" xml:space="preserve" fill="#084f6f" font-family="Urania Light" font-size="27" font-weight="700" x="139.511" y="0">NIDUS</text>
	<text id="dp_text020" transform="matrix(1.11727,8.06157e-016,-6.97656e-016,1,-57.3779,69.0813)" xml:space="preserve" fill="#084f6f" font-family="Urania Light" font-size="27" font-weight="700" x="156.883" y="0">LAB</text>
</svg>